PathFileType	4	(X/Y/Z)	/Users/itak/Documents/Research/Walk-IL/dataset/trc/00344_00011.trc
DataRate	CameraRate	NumFrames	NumMarkers	Units	OrigDataRate	OrigDataStartFrame	OrigNumFrames
100.000000	100.000000	4	53	mm	100.000000	258	688
Frame#	Time	RPSI			LPSI			L3			STRN			T10			C7			CLAV			RBAK			LBAK			LSHO			LUPA			LAEL			LAOL			LWTS			LWPS			LFRA			LIFD			LHPS			LHTS			RSHO			RUPA			RAEL			RAOL			RWTS			RWPS			RFRA			RIFD			RHTS			RHPS			RBHD			LFHD			RFHD			LBHD			LHIP			RHIP			RASI			LASI			LKNE			LTHI			LANK			LTIP			LTOE			LMT1			LMT5			LHEE			RKNE			RTHI			RANK			RTIP			RTOE			RMT1			RMT5			RHEE			
		X1	Y1	Z1	X2	Y2	Z2	X3	Y3	Z3	X4	Y4	Z4	X5	Y5	Z5	X6	Y6	Z6	X7	Y7	Z7	X8	Y8	Z8	X9	Y9	Z9	X10	Y10	Z10	X11	Y11	Z11	X12	Y12	Z12	X13	Y13	Z13	X14	Y14	Z14	X15	Y15	Z15	X16	Y16	Z16	X17	Y17	Z17	X18	Y18	Z18	X19	Y19	Z19	X20	Y20	Z20	X21	Y21	Z21	X22	Y22	Z22	X23	Y23	Z23	X24	Y24	Z24	X25	Y25	Z25	X26	Y26	Z26	X27	Y27	Z27	X28	Y28	Z28	X29	Y29	Z29	X30	Y30	Z30	X31	Y31	Z31	X32	Y32	Z32	X33	Y33	Z33	X34	Y34	Z34	X35	Y35	Z35	X36	Y36	Z36	X37	Y37	Z37	X38	Y38	Z38	X39	Y39	Z39	X40	Y40	Z40	X41	Y41	Z41	X42	Y42	Z42	X43	Y43	Z43	X44	Y44	Z44	X45	Y45	Z45	X46	Y46	Z46	X47	Y47	Z47	X48	Y48	Z48	X49	Y49	Z49	X50	Y50	Z50	X51	Y51	Z51	X52	Y52	Z52	X53	Y53	Z53	

259	2.58	852.5841064453125	938.9177856445312	120.2749862670898	730.0100708007812	929.7086791992188	156.8780822753906	803.6035766601562	993.5250244140625	139.5527954101562	705.4485473632812	1174.710815429688	-73.67166137695312	808.1055297851562	1112.581420898438	147.3553466796875	767.574462890625	1358.3623046875	110.7968521118164	711.0732421875	1300.58251953125	-31.79541397094727	856.5220336914062	1223.355102539062	127.3032302856445	684.3746948242188	1318.890502929688	165.5933990478516	595.6961669921875	1328.476806640625	113.346321105957	563.8703002929688	1211.314575195312	175.2902984619141	580.9904174804688	1011.806518554688	207.4210510253906	665.80712890625	1014.419982910156	218.5131988525391	596.6984252929688	748.49169921875	169.0121612548828	578.4697875976562	753.4644165039062	235.5228576660156	582.6853637695312	908.1982421875	225.4268646240234	640.56787109375	598.5722045898438	206.4318389892578	601.7006225585938	688.541015625	254.7980346679688	597.2392578125	670.482421875	193.3414001464844	892.1480102539062	1354.056640625	-5.248260498046875	957.8812866210938	1296.147705078125	-26.31695175170898	1026.307983398438	1057.647094726562	-129.7892150878906	968.0322875976562	1015.914611816406	-67.00901794433594	950.611572265625	882.1491088867188	-299.4555969238281	1026.032104492188	869.0021362304688	-301.2236938476562	1030.582885742188	1005.525024414062	-181.4910430908203	955.9147338867188	733.651123046875	-387.902587890625	955.2232666015625	805.9557495117188	-373.4862060546875	1020.356201171875	799.1617431640625	-350.0184326171875	807.1754150390625	1571.812255859375	10.33184909820557	608.4793701171875	1562.641479492188	-55.03936386108398	695.0778198242188	1570.569458007812	-107.3919906616211	701.4296875	1557.5078125	107.9772796630859	609.5573120117188	873.5325317382812	96.66590118408203	942.8822021484375	886.7808837890625	20.20373725891113	878.5639038085938	909.562255859375	-74.40959930419922	642.3477783203125	902.7296142578125	-33.41728591918945	600.2034301757812	443.7920837402344	-98.97724151611328	587.741455078125	571.3168334960938	-45.93923187255859	648.3760375976562	29.85678482055664	-194.0344696044922	612.5242309570312	224.7154998779297	-135.9774322509766	526.349853515625	90.61253356933594	-356.6683654785156	603.2730102539062	67.00782012939453	-351.4473876953125	542.5810546875	52.84453201293945	-257.5517883300781	717.1524658203125	32.94506072998047	-224.1456298828125	946.749267578125	440.2125854492188	76.10106658935547	944.304443359375	681.070556640625	-21.8687572479248	979.5809326171875	76.79505920410156	306.7529602050781	956.1403198242188	324.4881286621094	116.7049102783203	949.9014282226562	32.84441375732422	120.7070922851562	899.8937377929688	33.36905670166016	168.3937377929688	1008.186340332031	32.65476608276367	218.6438598632812	926.4727783203125	94.58973693847656	347.9652099609375	
260	2.59	848.8681640625	938.298095703125	110.7213516235352	726.413330078125	929.2119140625	147.8035583496094	800.1375122070312	992.468505859375	130.2811126708984	700.6174926757812	1174.260498046875	-81.74648284912109	804.880615234375	1111.62744140625	138.6859283447266	764.0619506835938	1357.549194335938	102.888916015625	706.5423583984375	1300.078979492188	-39.50077438354492	852.9383544921875	1222.435913085938	118.6821899414062	681.1405029296875	1317.943115234375	158.1611785888672	592.141357421875	1327.7333984375	106.3753433227539	560.7720336914062	1210.390991210938	168.2453460693359	578.5641479492188	1010.809265136719	199.7390594482422	663.6633911132812	1013.889221191406	210.5246429443359	594.754150390625	747.5728149414062	160.447509765625	576.798828125	752.2749633789062	227.0237579345703	580.6133422851562	907.1535034179688	217.4509735107422	640.1852416992188	597.8880004882812	197.23046875	600.7296142578125	687.377685546875	246.0378723144531	596.1539306640625	669.4369506835938	184.5697784423828	888.003662109375	1353.1455078125	-13.90882396697998	953.51171875	1295.076538085938	-35.36467742919922	1020.341979980469	1055.6298828125	-137.8960723876953	962.2520141601562	1014.443359375	-74.66706085205078	942.5044555664062	880.0510864257812	-306.3190002441406	1017.82080078125	866.3930053710938	-308.6877746582031	1024.0771484375	1003.252624511719	-189.3732452392578	946.0115356445312	731.3026733398438	-394.4168395996094	946.015625	803.6054077148438	-380.1552124023438	1011.388793945312	796.60400390625	-357.3605041503906	803.6089477539062	1571.133544921875	2.407528162002563	604.45849609375	1562.452392578125	-61.46186828613281	690.6476440429688	1570.256469726562	-114.4695205688477	698.5616455078125	1556.930297851562	100.819709777832	605.835205078125	873.3478393554688	87.72736358642578	939.073486328125	886.1060791015625	10.67946815490723	874.6233520507812	908.9144897460938	-83.89163208007812	638.575927734375	902.4879760742188	-42.35161972045898	596.132080078125	443.6027526855469	-107.9518280029297	582.8566284179688	571.6871337890625	-55.96688079833984	649.4662475585938	30.17360496520996	-196.2141265869141	611.3289794921875	223.5575256347656	-142.6114654541016	527.5397338867188	84.73222351074219	-361.1714172363281	604.6353759765625	61.45103454589844	-354.7471618652344	543.9043579101562	50.79876327514648	-260.8461608886719	718.3826904296875	31.93534088134766	-226.3493804931641	944.4888916015625	440.3453979492188	66.29872131347656	940.9376831054688	680.5762939453125	-31.74298477172852	980.4673461914062	81.21652221679688	304.2515869140625	954.99951171875	325.2060546875	109.0466918945312	950.2174682617188	33.11435317993164	120.5450668334961	900.4166870117188	34.00148010253906	167.7181701660156	1009.012390136719	33.86604309082031	217.5233306884766	927.543701171875	100.3950576782227	345.0075073242188	
261	2.6	845.0014038085938	937.7861328125	100.9978332519531	722.6575317382812	928.9187622070312	138.6724548339844	796.5396728515625	991.6514892578125	120.9221725463867	695.6470336914062	1174.074584960938	-89.8753662109375	801.5166015625	1110.912109375	129.9624786376953	760.3973388671875	1356.986694335938	94.94040679931641	701.8615112304688	1299.817260742188	-47.24625015258789	849.19384765625	1221.760131835938	109.9951858520508	677.7538452148438	1317.1923828125	150.688232421875	588.41455078125	1327.181396484375	99.35227966308594	557.443115234375	1209.632690429688	161.0774383544922	575.8087768554688	1009.980346679688	191.9620056152344	661.15576171875	1013.479858398438	202.4228363037109	592.2603149414062	746.8854370117188	151.5684967041016	574.6469116210938	751.2467651367188	218.2355804443359	578.17236328125	906.2455444335938	209.3222198486328	639.0111083984375	597.3179321289062	187.4712219238281	599.175537109375	686.3280639648438	236.8679962158203	594.3773803710938	668.6024780273438	175.3779754638672	883.7020263671875	1352.487060546875	-22.63942527770996	948.96875	1294.21484375	-44.45348358154297	1014.195739746094	1053.735595703125	-145.7997741699219	956.2543334960938	1013.188049316406	-82.15534210205078	934.2858276367188	877.8977661132812	-312.8131408691406	1009.501647949219	863.7747802734375	-315.7705383300781	1017.405212402344	1001.080749511719	-197.0155639648438	936.0171508789062	728.7728881835938	-400.2936096191406	936.6937866210938	801.0861206054688	-386.3112487792969	1002.328918457031	793.9642944335938	-364.2213439941406	799.8540649414062	1570.703857421875	-5.53341817855835	600.2615356445312	1562.508911132812	-67.87302398681641	686.03076171875	1570.20849609375	-121.5507049560547	695.5377197265625	1556.5712890625	93.63525390625	601.768798828125	873.4388427734375	78.76306915283203	935.0264282226562	885.5660400390625	0.8630170226097107	870.3439331054688	908.4595336914062	-93.58681488037109	634.500732421875	902.5045166015625	-51.29935836791992	591.9483642578125	443.5848693847656	-116.9141616821289	577.79345703125	572.09326171875	-65.68667602539062	650.3385009765625	30.9505500793457	-198.1988830566406	609.8213500976562	222.7453918457031	-149.3705139160156	528.8901977539062	79.02365112304688	-365.8771667480469	606.1701049804688	55.9528923034668	-357.9311218261719	545.2815551757812	49.28774642944336	-264.2164001464844	719.4564208984375	31.32053184509277	-228.24560546875	942.1013793945312	440.5836181640625	55.56783676147461	937.2345581054688	680.2767944335938	-42.17316818237305	981.4633178710938	86.10911560058594	301.1482238769531	953.8233642578125	326.1548767089844	100.5522232055664	950.5925903320312	33.40475463867188	120.3941345214844	901.0347290039062	34.68906784057617	166.8385620117188	1009.969665527344	35.24838256835938	216.1909790039062	928.7670288085938	106.8548355102539	341.3070068359375	
262	2.61	841.01171875	937.3740234375	91.15921783447266	718.7809448242188	928.8284301757812	129.5377197265625	792.8212280273438	991.1229248046875	111.5183334350586	690.5629272460938	1174.17431640625	-98.027587890625	798.01171875	1110.47802734375	121.1930084228516	756.6151123046875	1356.700073242188	86.95896148681641	697.06982421875	1299.815063476562	-55.02061080932617	845.3069458007812	1221.355834960938	101.252326965332	674.2562866210938	1316.689208984375	143.1878967285156	584.5474243164062	1326.8583984375	92.29843139648438	553.9168090820312	1209.071655273438	153.8045501708984	572.7235107421875	1009.340148925781	184.0852203369141	658.2759399414062	1013.189208984375	194.20751953125	589.223388671875	746.4564819335938	142.3812408447266	572.003173828125	750.4052734375	209.1609649658203	575.34619140625	905.4981079101562	201.0280303955078	637.0050659179688	596.884033203125	177.1745147705078	597.0025024414062	685.42236328125	227.2990112304688	591.8954467773438	668.0103149414062	165.7754058837891	879.2683715820312	1352.097900390625	-31.44303321838379	944.2706909179688	1293.572875976562	-53.58103942871094	1007.887390136719	1051.988403320312	-153.5079193115234	950.0618286132812	1012.178833007812	-89.46580505371094	925.9768676757812	875.712646484375	-318.9488220214844	1001.097595214844	861.1763916015625	-322.4857177734375	1010.583801269531	999.0419311523438	-204.4313812255859	925.9569702148438	726.0776977539062	-405.5359191894531	927.2815551757812	798.4266357421875	-391.9613952636719	993.2052612304688	791.2833251953125	-370.6251220703125	795.9186401367188	1570.54638671875	-13.49543857574463	595.8915405273438	1562.80419921875	-74.26235961914062	681.222900390625	1570.427124023438	-128.6312866210938	692.373291015625	1556.447509765625	86.43296813964844	597.4009399414062	873.79150390625	69.86212158203125	930.734375	885.1929321289062	-9.244744300842285	865.6929321289062	908.2267456054688	-103.4687576293945	630.1049194335938	902.780517578125	-60.17825317382812	587.666748046875	443.7500915527344	-125.876594543457	572.7302856445312	572.5230712890625	-74.97235107421875	650.908447265625	32.07697296142578	-200.0933227539062	607.8885498046875	222.3041839599609	-156.2665710449219	530.20458984375	73.63666534423828	-370.6744384765625	607.6817626953125	50.68638229370117	-361.0564575195312	546.5676879882812	48.24040603637695	-267.6725463867188	720.2476196289062	31.11069107055664	-229.9802093505859	939.5936889648438	440.9351196289062	43.80749893188477	933.1575927734375	680.1873168945312	-53.19281768798828	982.5838623046875	91.486572265625	297.2952575683594	952.6175537109375	327.3595275878906	91.08824157714844	951.0300903320312	33.67871856689453	120.2296295166016	901.7556762695312	35.42531967163086	165.6995697021484	1011.0517578125	36.82778167724609	214.5808410644531	930.1458740234375	113.9744567871094	336.6870727539062	
